<mxfile host="app.diagrams.net" modified="2024-05-09T11:49:47.496Z" agent="Mozilla/5.0 (Windows NT 10.0; Win64; x64) AppleWebKit/537.36 (KHTML, like Gecko) Chrome/122.0.0.0 Safari/537.36 Edg/122.0.0.0" version="24.3.1" etag="b5lMcPXAGLCujQsdvyzz" type="github">
  <diagram name="第 1 页" id="YowLrkrMRttfu4AoxrCK">
    <mxGraphModel>
      <root>
        <mxCell id="0" />
        <mxCell id="1" parent="0" />
      </root>
    </mxGraphModel>
  </diagram>
</mxfile>
